<svg width="157" height="157" viewBox="0 0 157 157" fill="none" xmlns="http://www.w3.org/2000/svg">
<path d="M19 53.616C19 41.1492 19 34.9158 21.468 30.1542C23.639 25.9657 27.103 22.5603 31.3637 20.4262C36.2075 18 42.5484 18 55.2301 18H100.77C113.452 18 119.792 18 124.636 20.4262C128.897 22.5603 132.361 25.9657 134.532 30.1542C137 34.9158 137 41.1492 137 53.616V100.384C137 112.851 137 119.084 134.532 123.846C132.361 128.034 128.897 131.44 124.636 133.574C119.792 136 113.452 136 100.77 136H55.2301C42.5484 136 36.2075 136 31.3637 133.574C27.103 131.44 23.639 128.034 21.468 123.846C19 119.084 19 112.851 19 100.384V53.616Z" fill="url(#paint0_linear_9167_4779)"/>
<path d="M137 50L19 50C19 40.5882 19 35.8824 20.4447 32.1307C22.7011 26.2713 27.3987 21.645 33.3484 19.4228C37.1577 18 41.9361 18 51.4928 18L104.507 18C114.064 18 118.842 18 122.652 19.4228C128.601 21.645 133.299 26.2714 135.555 32.1308C137 35.8824 137 40.5883 137 50Z" fill="url(#paint1_linear_9167_4779)"/>
<path d="M91.75 105.333L105 92L91.75 78.6667M65.25 78.6667L52 92L65.25 105.333M83.8 68L73.2 116" stroke="white" stroke-width="4" stroke-linecap="round" stroke-linejoin="round"/>
<mask id="path-4-inside-1_9167_4779" fill="white">
<path d="M95 35.5C95 39.0899 92.0899 42 88.5 42C84.9102 42 82 39.0899 82 35.5C82 31.9101 84.9102 29 88.5 29C92.0899 29 95 31.9101 95 35.5Z"/>
<path d="M111 35.5C111 39.0899 108.09 42 104.5 42C100.91 42 98 39.0899 98 35.5C98 31.9101 100.91 29 104.5 29C108.09 29 111 31.9101 111 35.5Z"/>
<path d="M127 35.5C127 39.0899 124.09 42 120.5 42C116.91 42 114 39.0899 114 35.5C114 31.9101 116.91 29 120.5 29C124.09 29 127 31.9101 127 35.5Z"/>
</mask>
<path d="M95 35.5H91C91 36.8807 89.8807 38 88.5 38V42V46C94.299 46 99 41.299 99 35.5H95ZM88.5 42V38C87.1193 38 86 36.8807 86 35.5H82H78C78 41.299 82.701 46 88.5 46V42ZM82 35.5H86C86 34.1193 87.1193 33 88.5 33V29V25C82.701 25 78 29.701 78 35.5H82ZM88.5 29V33C89.8807 33 91 34.1193 91 35.5H95H99C99 29.701 94.299 25 88.5 25V29ZM111 35.5H107C107 36.8807 105.881 38 104.5 38V42V46C110.299 46 115 41.299 115 35.5H111ZM104.5 42V38C103.119 38 102 36.8807 102 35.5H98H94C94 41.299 98.701 46 104.5 46V42ZM98 35.5H102C102 34.1193 103.119 33 104.5 33V29V25C98.701 25 94 29.701 94 35.5H98ZM104.5 29V33C105.881 33 107 34.1193 107 35.5H111H115C115 29.701 110.299 25 104.5 25V29ZM127 35.5H123C123 36.8807 121.881 38 120.5 38V42V46C126.299 46 131 41.299 131 35.5H127ZM120.5 42V38C119.119 38 118 36.8807 118 35.5H114H110C110 41.299 114.701 46 120.5 46V42ZM114 35.5H118C118 34.1193 119.119 33 120.5 33V29V25C114.701 25 110 29.701 110 35.5H114ZM120.5 29V33C121.881 33 123 34.1193 123 35.5H127H131C131 29.701 126.299 25 120.5 25V29Z" fill="white" mask="url(#path-4-inside-1_9167_4779)"/>
<defs>
<linearGradient id="paint0_linear_9167_4779" x1="19" y1="18" x2="137" y2="103.507" gradientUnits="userSpaceOnUse">
<stop stop-color="#66D9C6"/>
<stop offset="1" stop-color="#009688"/>
</linearGradient>
<linearGradient id="paint1_linear_9167_4779" x1="137" y1="50" x2="120.833" y2="-9.61572" gradientUnits="userSpaceOnUse">
<stop stop-color="#009688"/>
<stop offset="1" stop-color="#66D9C6"/>
</linearGradient>
</defs>
</svg>
