<svg width="124" height="124" viewBox="0 0 124 124" fill="none" xmlns="http://www.w3.org/2000/svg">
<g filter="url(#filter0_di_9682_362)">
<path d="M2 52.2C2 34.2783 2 25.3175 5.48779 18.4723C8.55574 12.4511 13.4511 7.55574 19.4723 4.48779C26.3175 1 35.2783 1 53.2 1H70.8C88.7217 1 97.6825 1 104.528 4.48779C110.549 7.55574 115.444 12.4511 118.512 18.4723C122 25.3175 122 34.2783 122 52.2V69.8C122 87.7217 122 96.6825 118.512 103.528C115.444 109.549 110.549 114.444 104.528 117.512C97.6825 121 88.7217 121 70.8 121H53.2C35.2783 121 26.3175 121 19.4723 117.512C13.4511 114.444 8.55574 109.549 5.48779 103.528C2 96.6825 2 87.7217 2 69.8V52.2Z" fill="url(#paint0_linear_9682_362)" shape-rendering="crispEdges"/>
</g>
<rect x="22" y="29" width="80" height="65" rx="8" fill="url(#paint1_radial_9682_362)"/>
<path d="M38.25 49L52.4532 61.3557L38.25 74M61.9798 74H86.7488" stroke="#99F6E4" stroke-width="4" stroke-linecap="round"/>
<defs>
<filter id="filter0_di_9682_362" x="0" y="0" width="124" height="124" filterUnits="userSpaceOnUse" color-interpolation-filters="sRGB">
<feFlood flood-opacity="0" result="BackgroundImageFix"/>
<feColorMatrix in="SourceAlpha" type="matrix" values="0 0 0 0 0 0 0 0 0 0 0 0 0 0 0 0 0 0 127 0" result="hardAlpha"/>
<feOffset dy="1"/>
<feGaussianBlur stdDeviation="1"/>
<feComposite in2="hardAlpha" operator="out"/>
<feColorMatrix type="matrix" values="0 0 0 0 0.0392157 0 0 0 0 0.0496732 0 0 0 0 0.0705882 0 0 0 0.05 0"/>
<feBlend mode="normal" in2="BackgroundImageFix" result="effect1_dropShadow_9682_362"/>
<feBlend mode="normal" in="SourceGraphic" in2="effect1_dropShadow_9682_362" result="shape"/>
<feColorMatrix in="SourceAlpha" type="matrix" values="0 0 0 0 0 0 0 0 0 0 0 0 0 0 0 0 0 0 127 0" result="hardAlpha"/>
<feOffset dy="-2"/>
<feComposite in2="hardAlpha" operator="arithmetic" k2="-1" k3="1"/>
<feColorMatrix type="matrix" values="0 0 0 0 0.0392157 0 0 0 0 0.0496732 0 0 0 0 0.0705882 0 0 0 0.05 0"/>
<feBlend mode="normal" in2="shape" result="effect2_innerShadow_9682_362"/>
</filter>
<linearGradient id="paint0_linear_9682_362" x1="0.264732" y1="3.64068" x2="107.745" y2="129.643" gradientUnits="userSpaceOnUse">
<stop stop-color="white" stop-opacity="0.87"/>
<stop offset="1" stop-color="white" stop-opacity="0.75"/>
</linearGradient>
<radialGradient id="paint1_radial_9682_362" cx="0" cy="0" r="1" gradientUnits="userSpaceOnUse" gradientTransform="translate(62 61.5) rotate(-138.013) scale(75.6766 67.4474)">
<stop stop-color="#66D9C6"/>
<stop offset="1" stop-color="#009688"/>
</radialGradient>
</defs>
</svg>
